<?xml version="1.0" encoding="utf-8"?>
<!-- Generator: Adobe Illustrator 18.0.0, SVG Export Plug-In . SVG Version: 6.00 Build 0)  -->
<!DOCTYPE svg PUBLIC "-//W3C//DTD SVG 1.1//EN" "http://www.w3.org/Graphics/SVG/1.1/DTD/svg11.dtd">
<svg version="1.1" id="Layer_1" xmlns="http://www.w3.org/2000/svg" xmlns:xlink="http://www.w3.org/1999/xlink" x="0px" y="0px"
	 viewBox="262 0 500 500" enable-background="new 262 0 500 500" xml:space="preserve">
<g id="Icon_x5F_EAR_x5F_gret">
	<g opacity="0.5">
		<path fill="#231F20" d="M512,500c-137.9,0-250-112.1-250-250S374.1,0,512,0s250,112.1,250,250S649.9,500,512,500z M512,25.3
			c-123.3,0-224.7,101.5-224.7,224.7S388.7,474.7,512,474.7S736.7,373.3,736.7,250S635.3,25.3,512,25.3z"/>
	</g>
</g>
<g>
	<path fill="#929497" d="M644,180H380c-9.9,0-18,8.1-18,18v144c0,9.9,8.1,18,18,18h264c9.9,0,18-8.1,18-18V198
		C662,188.1,653.9,180,644,180z M516,330c-33.1,0-60-26.9-60-60s26.9-60,60-60s60,26.9,60,60S549.1,330,516,330z"/>
	<path fill="#929497" d="M577,120H451c-6.6,0-12,5.4-12,12v48.8h150V132C589,125.4,583.6,120,577,120z"/>
</g>
</svg>
