<?xml version="1.0" encoding="utf-8"?>
<!-- Generator: Adobe Illustrator 18.0.0, SVG Export Plug-In . SVG Version: 6.00 Build 0)  -->
<!DOCTYPE svg PUBLIC "-//W3C//DTD SVG 1.1//EN" "http://www.w3.org/Graphics/SVG/1.1/DTD/svg11.dtd">
<svg version="1.1" id="Layer_1" xmlns="http://www.w3.org/2000/svg" xmlns:xlink="http://www.w3.org/1999/xlink" x="0px" y="0px"
	 viewBox="524 0 500 500" enable-background="new 524 0 500 500" xml:space="preserve">
<g id="Icon_x5F_EAR_x5F_gret">
	<g opacity="0.5">
		<path fill="#FFFFFF" d="M774,500c-137.9,0-250-112.1-250-250S636.1,0,774,0s250,112.1,250,250S911.9,500,774,500z M774,25.3
			c-123.3,0-224.7,101.5-224.7,224.7S650.7,474.7,774,474.7S998.7,373.3,998.7,250S897.3,25.3,774,25.3z"/>
	</g>
</g>
<g>
	<path fill="#FFFFFF" d="M906,180H642c-9.9,0-18,8.1-18,18v144c0,9.9,8.1,18,18,18h264c9.9,0,18-8.1,18-18V198
		C924,188.1,915.9,180,906,180z M778,330c-33.1,0-60-26.9-60-60s26.9-60,60-60s60,26.9,60,60S811.1,330,778,330z"/>
	<path fill="#FFFFFF" d="M839,120H713c-6.6,0-12,5.4-12,12v48.8h150V132C851,125.4,845.6,120,839,120z"/>
</g>
</svg>
