<?xml version="1.0" encoding="utf-8"?>
<!-- Generator: Adobe Illustrator 18.0.0, SVG Export Plug-In . SVG Version: 6.00 Build 0)  -->
<!DOCTYPE svg PUBLIC "-//W3C//DTD SVG 1.1//EN" "http://www.w3.org/Graphics/SVG/1.1/DTD/svg11.dtd">
<svg version="1.1" id="Layer_1" xmlns="http://www.w3.org/2000/svg" xmlns:xlink="http://www.w3.org/1999/xlink" x="0px" y="0px"
	 viewBox="150.5 90 445 445" enable-background="new 150.5 90 445 445" xml:space="preserve">
<g id="Icon_x5F_EAR_x5F_gret">
	<path opacity="0.5" fill="#231F20" enable-background="new    " d="M470.4,242.7c-7.2-34.9-33.7-62.5-68.6-68.6
		c-25.3-6-51.7,1.2-72.2,16.8c-20.4,16.8-32.5,40.9-32.5,68.6c0,3.6,2.4,6,6,6s6-2.4,6-6c0-22.9,9.6-44.5,27.7-58.9
		c16.8-14.4,39.7-19.2,62.5-14.4c30.1,6,52.9,28.9,58.9,58.9c4.8,21.6,0,42.1-13.2,60.1c-3.6,3.6-7.2,7.2-10.8,10.8
		c-4.8,2.4-26.5,15.6-34.9,34.9c-4.8,13.2-6,26.5-2.4,38.5c2.4,8.4,1.2,18-2.4,25.3c-8.4,15.6-22.9,25.3-40.9,25.3
		c-24.1,0-44.5-20.4-44.5-44.5c0-3.6-2.4-6-6-6s-6,2.4-6,6c0,31.3,25.3,56.5,56.5,56.5c21.6,0,40.9-12,51.7-32.5
		c4.8-9.6,6-22.9,3.6-32.5c-3.6-10.8-2.4-20.4,2.4-31.3c4.8-12,18-24.1,28.9-30.1c4.8-3.6,10.8-7.2,14.4-13.2
		C469.2,292,475.2,266.8,470.4,242.7z M332.1,354.6c-3.6,0-6,2.4-6,6c0,3.6,2.4,6,6,6c21.6,0,38.5-16.8,38.5-38.5
		c0-7.2-2.4-13.2-4.8-19.2c3.6-4.8,3.6-12,3.6-19.2c0-16.8-13.2-31.3-30.1-34.9c4.8-20.4,24.1-34.9,45.7-34.9
		c25.3,0,46.9,21.6,46.9,46.9c0,3.6,2.4,6,6,6c3.6,0,6-2.4,6-6c0-32.5-26.5-58.9-58.9-58.9s-58.9,26.5-58.9,58.9l0,0l0,0v28.9
		c0,3.6,2.4,6,6,6c14.4,0,26.5,12,26.5,26.5C358.6,342.6,346.5,354.6,332.1,354.6z"/>
	<g opacity="0.5">
		<path fill="#231F20" d="M373,535c-122.7,0-222.5-99.8-222.5-222.5S250.3,90,373,90s222.5,99.8,222.5,222.5S495.7,535,373,535z
			 M373,112.5c-109.7,0-200,90.3-200,200s90.3,200,200,200s200-90.3,200-200S482.7,112.5,373,112.5z"/>
	</g>
</g>
</svg>
