<?xml version="1.0" encoding="utf-8"?>
<!-- Generator: Adobe Illustrator 18.0.0, SVG Export Plug-In . SVG Version: 6.00 Build 0)  -->
<!DOCTYPE svg PUBLIC "-//W3C//DTD SVG 1.1//EN" "http://www.w3.org/Graphics/SVG/1.1/DTD/svg11.dtd">
<svg version="1.1" id="Layer_1" xmlns="http://www.w3.org/2000/svg" xmlns:xlink="http://www.w3.org/1999/xlink" x="0px" y="0px"
	 viewBox="0 90 612 612" enable-background="new 0 90 612 612" xml:space="preserve">
<g opacity="0.5">
	<path fill="#FFFFFF" d="M306,288.5L306,288.5c-109.2,0-200.1,99.2-198.5,115.8c1.7,14.9,77.7,115.8,198.5,115.8l0,0
		c109.2,0,200.1-99.2,198.5-115.8C502.8,389.4,426.7,288.5,306,288.5z M306,478.7c-41.4,0-74.4-33.1-74.4-74.4s33.1-74.4,74.4-74.4
		s74.4,33.1,74.4,74.4S347.4,478.7,306,478.7z"/>
</g>
<g opacity="0.5">
	<path fill="#FFFFFF" d="M306,702C137.3,702,0,564.7,0,396S137.3,90,306,90s306,137.3,306,306S474.7,702,306,702z M306,106.5
		C147.2,106.5,16.5,237.2,16.5,396S147.2,685.5,306,685.5S595.5,554.8,595.5,396S464.8,106.5,306,106.5z"/>
</g>
</svg>
