<?xml version="1.0" encoding="utf-8"?>
<!-- Generator: Adobe Illustrator 18.0.0, SVG Export Plug-In . SVG Version: 6.00 Build 0)  -->
<!DOCTYPE svg PUBLIC "-//W3C//DTD SVG 1.1//EN" "http://www.w3.org/Graphics/SVG/1.1/DTD/svg11.dtd">
<svg version="1.1" id="Layer_1" xmlns="http://www.w3.org/2000/svg" xmlns:xlink="http://www.w3.org/1999/xlink" x="0px" y="0px"
	 viewBox="0 0 612 792" enable-background="new 0 0 612 792" xml:space="preserve">
<symbol  id="Icon_x5F_EAR_x5F_gret" viewBox="-18.5 -18.5 37 37">
	<path opacity="0.5" fill="#FFFFFF" enable-background="new    " d="M8.1,5.8C7.5,8.7,5.3,11,2.4,11.5c-2.1,0.5-4.3-0.1-6-1.4
		c-1.7-1.4-2.7-3.4-2.7-5.7c0-0.3,0.2-0.5,0.5-0.5s0.5,0.2,0.5,0.5c0,1.9,0.8,3.7,2.3,4.9c1.4,1.2,3.3,1.6,5.2,1.2
		C4.7,10,6.6,8.1,7.1,5.6c0.4-1.8,0-3.5-1.1-5C5.7,0.3,5.4,0,5.1-0.3C4.7-0.5,2.9-1.6,2.2-3.2C1.8-4.3,1.7-5.4,2-6.4
		c0.2-0.7,0.1-1.5-0.2-2.1c-0.7-1.3-1.9-2.1-3.4-2.1c-2,0-3.7,1.7-3.7,3.7c0,0.3-0.2,0.5-0.5,0.5s-0.5-0.2-0.5-0.5
		c0-2.6,2.1-4.7,4.7-4.7c1.8,0,3.4,1,4.3,2.7C3.1-8.1,3.2-7,3-6.2C2.7-5.3,2.8-4.5,3.2-3.6c0.4,1,1.5,2,2.4,2.5C6-0.8,6.5-0.5,6.8,0
		C8,1.7,8.5,3.8,8.1,5.8z M-3.4-3.5c-0.3,0-0.5-0.2-0.5-0.5s0.2-0.5,0.5-0.5c1.8,0,3.2,1.4,3.2,3.2c0,0.6-0.2,1.1-0.4,1.6
		c0.3,0.4,0.3,1,0.3,1.6c0,1.4-1.1,2.6-2.5,2.9c0.4,1.7,2,2.9,3.8,2.9c2.1,0,3.9-1.8,3.9-3.9c0-0.3,0.2-0.5,0.5-0.5s0.5,0.2,0.5,0.5
		c0,2.7-2.2,4.9-4.9,4.9s-4.9-2.2-4.9-4.9l0,0l0,0V1.4c0-0.3,0.2-0.5,0.5-0.5c1.2,0,2.2-1,2.2-2.2S-2.2-3.5-3.4-3.5z"/>
	<g opacity="0.5">
		<path fill="#FFFFFF" d="M0-18.5c-10.2,0-18.5,8.3-18.5,18.5S-10.2,18.5,0,18.5S18.5,10.2,18.5,0S10.2-18.5,0-18.5z M0,17.5
			c-9.6,0-17.5-7.9-17.5-17.5S-9.6-17.5,0-17.5S17.5-9.6,17.5,0S9.6,17.5,0,17.5z"/>
	</g>
</symbol>
<use xlink:href="#Icon_x5F_EAR_x5F_gret"  width="37" height="37" id="XMLID_1_" x="-18.5" y="-18.5" transform="matrix(16.5405 0 0 -16.5405 306 395.9835)" overflow="visible"/>
</svg>
