<?xml version="1.0" encoding="utf-8"?>
<!-- Generator: Adobe Illustrator 18.0.0, SVG Export Plug-In . SVG Version: 6.00 Build 0)  -->
<!DOCTYPE svg PUBLIC "-//W3C//DTD SVG 1.1//EN" "http://www.w3.org/Graphics/SVG/1.1/DTD/svg11.dtd">
<svg version="1.1" id="Layer_1" xmlns="http://www.w3.org/2000/svg" xmlns:xlink="http://www.w3.org/1999/xlink" x="0px" y="0px"
	 viewBox="150.5 90 445 445" enable-background="new 150.5 90 445 445" xml:space="preserve">
<g opacity="0.5">
	<path fill="#FFFFFF" d="M373,234.3L373,234.3c-79.4,0-145.5,72.1-144.3,84.2c1.2,10.8,56.5,84.2,144.3,84.2l0,0
		c79.4,0,145.5-72.1,144.3-84.2C516.1,307.7,460.8,234.3,373,234.3z M373,372.6c-30.1,0-54.1-24.1-54.1-54.1s24.1-54.1,54.1-54.1
		s54.1,24.1,54.1,54.1S403.1,372.6,373,372.6z"/>
</g>
<g opacity="0.5">
	<path fill="#FFFFFF" d="M373,535c-122.7,0-222.5-99.8-222.5-222.5S250.3,90,373,90s222.5,99.8,222.5,222.5S495.7,535,373,535z
		 M373,112.5c-109.7,0-200,90.3-200,200s90.3,200,200,200s200-90.3,200-200S482.7,112.5,373,112.5z"/>
</g>
</svg>
