<?xml version="1.0" encoding="utf-8"?>
<!-- Generator: Adobe Illustrator 18.0.0, SVG Export Plug-In . SVG Version: 6.00 Build 0)  -->
<!DOCTYPE svg PUBLIC "-//W3C//DTD SVG 1.1//EN" "http://www.w3.org/Graphics/SVG/1.1/DTD/svg11.dtd">
<svg version="1.1" id="Layer_1" xmlns="http://www.w3.org/2000/svg" xmlns:xlink="http://www.w3.org/1999/xlink" x="0px" y="0px"
	 viewBox="524 0 500 500" enable-background="new 524 0 500 500" xml:space="preserve">
<g id="Icon_x5F_EAR_x5F_gret">
	<g opacity="0.5">
		<path fill="#FFFFFF" d="M774,500c-137.9,0-250-112.1-250-250S636.1,0,774,0s250,112.1,250,250S911.9,500,774,500z M774,25.3
			c-123.3,0-224.7,101.5-224.7,224.7S650.7,474.7,774,474.7S998.7,373.3,998.7,250S897.3,25.3,774,25.3z"/>
	</g>
</g>
<path opacity="0.5" fill="#FFFFFF" d="M908.1,115.9c-7.8-7.8-20.5-7.8-28.3,0L774,221.7l-99.3-99.3c-7.8-7.8-20.5-7.8-28.3,0
	s-7.8,20.5,0,28.3l99.3,99.3L639.9,355.9c-7.8,7.8-7.8,20.5,0,28.3c3.9,3.9,9,5.9,14.1,5.9s10.2-2,14.1-5.9L774,278.3l99.3,99.3
	c3.9,3.9,9,5.9,14.1,5.9s10.2-2,14.1-5.9c7.8-7.8,7.8-20.5,0-28.3L802.3,250l105.9-105.9C916,136.3,916,123.7,908.1,115.9z"/>
</svg>
