<?xml version="1.0" encoding="utf-8"?>
<!-- Generator: Adobe Illustrator 18.0.0, SVG Export Plug-In . SVG Version: 6.00 Build 0)  -->
<!DOCTYPE svg PUBLIC "-//W3C//DTD SVG 1.1//EN" "http://www.w3.org/Graphics/SVG/1.1/DTD/svg11.dtd">
<svg version="1.1" id="Layer_1" xmlns="http://www.w3.org/2000/svg" xmlns:xlink="http://www.w3.org/1999/xlink" x="0px" y="0px"
	 viewBox="150.5 0 445 445" enable-background="new 150.5 0 445 445" xml:space="preserve">
<g>
	<g>
		<path fill="#FFFFFF" d="M481.2,168.4H264.8c-9.6,0-18-8.4-18-18c0-9.6,8.4-18,18-18h216.5c9.6,0,18,8.4,18,18
			C499.3,160,490.9,168.4,481.2,168.4z"/>
	</g>
	<g>
		<path fill="#FFFFFF" d="M481.2,240.5H264.8c-9.6,0-18-8.4-18-18s8.4-18,18-18h216.5c9.6,0,18,8.4,18,18S490.9,240.5,481.2,240.5z"
			/>
	</g>
	<g>
		<path fill="#FFFFFF" d="M481.2,312.7H264.8c-9.6,0-18-8.4-18-18s8.4-18,18-18h216.5c9.6,0,18,8.4,18,18S490.9,312.7,481.2,312.7z"
			/>
	</g>
</g>
<g>
	<path fill="#FFFFFF" d="M373,445c-122.7,0-222.5-99.8-222.5-222.5S250.3,0,373,0s222.5,99.8,222.5,222.5S495.7,445,373,445z
		 M373,22.5c-110.9,0-200,90.3-200,200s89.1,200,200,200s200-90.3,200-200S482.7,22.5,373,22.5z"/>
</g>
</svg>
