<?xml version="1.0" encoding="utf-8"?>
<!-- Generator: Adobe Illustrator 17.1.0, SVG Export Plug-In . SVG Version: 6.00 Build 0)  -->
<!DOCTYPE svg PUBLIC "-//W3C//DTD SVG 1.1//EN" "http://www.w3.org/Graphics/SVG/1.1/DTD/svg11.dtd">
<svg version="1.1" id="Layer_1" xmlns="http://www.w3.org/2000/svg" xmlns:xlink="http://www.w3.org/1999/xlink" x="0px" y="0px"
	 viewBox="0 0 37 37" enable-background="new 0 0 37 37" xml:space="preserve">
<g opacity="0.5">
	<path fill="#231F20" d="M18.5,12L18.5,12c-6.6,0-12.1,6-12,7c0.1,0.9,4.7,7,12,7l0,0c6.6,0,12.1-6,12-7C30.4,18.1,25.8,12,18.5,12z
		 M18.5,23.5c-2.5,0-4.5-2-4.5-4.5s2-4.5,4.5-4.5s4.5,2,4.5,4.5S21,23.5,18.5,23.5z"/>
</g>
<g opacity="0.5">
	<path fill="#231F20" d="M18.5,37C8.3,37,0,28.7,0,18.5S8.3,0,18.5,0S37,8.3,37,18.5S28.7,37,18.5,37z M18.5,1C8.9,1,1,8.9,1,18.5
		S8.9,36,18.5,36S36,28.1,36,18.5S28.1,1,18.5,1z"/>
</g>
</svg>
