<?xml version="1.0" encoding="utf-8"?>
<!-- Generator: Adobe Illustrator 18.0.0, SVG Export Plug-In . SVG Version: 6.00 Build 0)  -->
<!DOCTYPE svg PUBLIC "-//W3C//DTD SVG 1.1//EN" "http://www.w3.org/Graphics/SVG/1.1/DTD/svg11.dtd">
<svg version="1.1" id="Layer_1" xmlns="http://www.w3.org/2000/svg" xmlns:xlink="http://www.w3.org/1999/xlink" x="0px" y="0px"
	 viewBox="0 0 38.6 37" enable-background="new 0 0 38.6 37" xml:space="preserve">
<g>
	<g>
		<path fill="#FFFFFF" d="M28.3,14h-18c-0.8,0-1.5-0.7-1.5-1.5S9.5,11,10.3,11h18c0.8,0,1.5,0.7,1.5,1.5S29.1,14,28.3,14z"/>
	</g>
	<g>
		<path fill="#FFFFFF" d="M28.3,20h-18c-0.8,0-1.5-0.7-1.5-1.5S9.5,17,10.3,17h18c0.8,0,1.5,0.7,1.5,1.5S29.1,20,28.3,20z"/>
	</g>
	<g>
		<path fill="#FFFFFF" d="M28.3,26h-18c-0.8,0-1.5-0.7-1.5-1.5S9.5,23,10.3,23h18c0.8,0,1.5,0.7,1.5,1.5S29.1,26,28.3,26z"/>
	</g>
</g>
<g>
	<path fill="#FFFFFF" d="M19.3,37C9.1,37,0.8,28.7,0.8,18.5C0.8,8.3,9.1,0,19.3,0s18.5,8.3,18.5,18.5C37.8,28.7,29.5,37,19.3,37z
		 M19.3,1C9.6,1,1.8,8.9,1.8,18.5C1.8,28.1,9.6,36,19.3,36s17.5-7.9,17.5-17.5C36.8,8.9,28.9,1,19.3,1z"/>
</g>
</svg>
